<mxfile host="65bd71144e">
    <diagram id="T9uuaTeBy4bPSP1g8a4x" name="Page-1">
        <mxGraphModel dx="1662" dy="509" grid="1" gridSize="10" guides="1" tooltips="1" connect="1" arrows="1" fold="1" page="1" pageScale="1" pageWidth="827" pageHeight="1169" background="#FFFFFF" math="0" shadow="0">
            <root>
                <mxCell id="0"/>
                <mxCell id="1" parent="0"/>
                <mxCell id="277" value="" style="endArrow=none;html=1;" edge="1" parent="1">
                    <mxGeometry width="50" height="50" relative="1" as="geometry">
                        <mxPoint x="40" y="640" as="sourcePoint"/>
                        <mxPoint x="40" y="30" as="targetPoint"/>
                    </mxGeometry>
                </mxCell>
                <mxCell id="278" value="Concept Definition" style="rounded=0;whiteSpace=wrap;html=1;strokeColor=none;fillColor=none;" vertex="1" parent="1">
                    <mxGeometry x="40" y="40" width="120" height="40" as="geometry"/>
                </mxCell>
                <mxCell id="279" value="System Definition" style="rounded=0;whiteSpace=wrap;html=1;strokeColor=none;fillColor=none;" vertex="1" parent="1">
                    <mxGeometry x="180" y="40" width="120" height="40" as="geometry"/>
                </mxCell>
                <mxCell id="280" value="System Realization" style="rounded=0;whiteSpace=wrap;html=1;strokeColor=none;fillColor=none;" vertex="1" parent="1">
                    <mxGeometry x="320" y="40" width="120" height="40" as="geometry"/>
                </mxCell>
                <mxCell id="281" value="Systems Production/Support/Utilization" style="rounded=0;whiteSpace=wrap;html=1;strokeColor=none;fillColor=none;" vertex="1" parent="1">
                    <mxGeometry x="480" y="40" width="120" height="40" as="geometry"/>
                </mxCell>
                <mxCell id="282" value="System Retirement" style="rounded=0;whiteSpace=wrap;html=1;strokeColor=none;fillColor=none;" vertex="1" parent="1">
                    <mxGeometry x="640" y="40" width="120" height="40" as="geometry"/>
                </mxCell>
                <mxCell id="283" value="Stakeholder Requirements &amp;amp; Operational Concept" style="rounded=0;whiteSpace=wrap;html=1;strokeColor=none;fillColor=none;align=right;" vertex="1" parent="1">
                    <mxGeometry x="-120" y="120" width="160" height="40" as="geometry"/>
                </mxCell>
                <mxCell id="284" value="System Requirements &amp;amp; Architecture Design" style="rounded=0;whiteSpace=wrap;html=1;strokeColor=none;fillColor=none;align=right;" vertex="1" parent="1">
                    <mxGeometry x="-120" y="200" width="160" height="40" as="geometry"/>
                </mxCell>
                <mxCell id="285" value="System Implementation" style="rounded=0;whiteSpace=wrap;html=1;strokeColor=none;fillColor=none;align=right;" vertex="1" parent="1">
                    <mxGeometry x="-120" y="280" width="160" height="40" as="geometry"/>
                </mxCell>
                <mxCell id="286" value="Integration &amp;amp; Verification" style="rounded=0;whiteSpace=wrap;html=1;strokeColor=none;fillColor=none;align=right;" vertex="1" parent="1">
                    <mxGeometry x="-120" y="360" width="160" height="40" as="geometry"/>
                </mxCell>
                <mxCell id="287" value="Transition &amp;amp; Validation" style="rounded=0;whiteSpace=wrap;html=1;strokeColor=none;fillColor=none;align=right;" vertex="1" parent="1">
                    <mxGeometry x="-120" y="440" width="160" height="40" as="geometry"/>
                </mxCell>
                <mxCell id="288" value="Use, Support, Disposal" style="rounded=0;whiteSpace=wrap;html=1;strokeColor=none;fillColor=none;align=right;" vertex="1" parent="1">
                    <mxGeometry x="-120" y="520" width="160" height="40" as="geometry"/>
                </mxCell>
                <mxCell id="289" value="Project Management" style="rounded=0;whiteSpace=wrap;html=1;strokeColor=none;fillColor=none;align=right;" vertex="1" parent="1">
                    <mxGeometry x="-120" y="600" width="160" height="40" as="geometry"/>
                </mxCell>
                <mxCell id="290" value="" style="endArrow=none;html=1;rounded=0;" edge="1" parent="1">
                    <mxGeometry width="50" height="50" relative="1" as="geometry">
                        <mxPoint x="40" y="160" as="sourcePoint"/>
                        <mxPoint x="760" y="160" as="targetPoint"/>
                        <Array as="points">
                            <mxPoint x="70" y="130"/>
                            <mxPoint x="120" y="120"/>
                            <mxPoint x="170" y="130"/>
                            <mxPoint x="270" y="140"/>
                            <mxPoint x="350" y="130"/>
                            <mxPoint x="400" y="140"/>
                            <mxPoint x="450" y="150"/>
                            <mxPoint x="490" y="140"/>
                            <mxPoint x="540" y="150"/>
                            <mxPoint x="660" y="150"/>
                        </Array>
                    </mxGeometry>
                </mxCell>
                <mxCell id="292" value="" style="endArrow=none;html=1;rounded=0;" edge="1" parent="1">
                    <mxGeometry width="50" height="50" relative="1" as="geometry">
                        <mxPoint x="40" y="160" as="sourcePoint"/>
                        <mxPoint x="760" y="160" as="targetPoint"/>
                    </mxGeometry>
                </mxCell>
                <mxCell id="293" value="" style="endArrow=none;html=1;rounded=0;" edge="1" parent="1">
                    <mxGeometry width="50" height="50" relative="1" as="geometry">
                        <mxPoint x="40" y="239.9999999999999" as="sourcePoint"/>
                        <mxPoint x="760" y="239.9999999999999" as="targetPoint"/>
                    </mxGeometry>
                </mxCell>
                <mxCell id="295" value="" style="endArrow=none;html=1;rounded=0;" edge="1" parent="1">
                    <mxGeometry width="50" height="50" relative="1" as="geometry">
                        <mxPoint x="40" y="320" as="sourcePoint"/>
                        <mxPoint x="760" y="320" as="targetPoint"/>
                    </mxGeometry>
                </mxCell>
                <mxCell id="296" value="" style="endArrow=none;html=1;rounded=0;" edge="1" parent="1">
                    <mxGeometry width="50" height="50" relative="1" as="geometry">
                        <mxPoint x="40" y="400" as="sourcePoint"/>
                        <mxPoint x="760" y="400" as="targetPoint"/>
                    </mxGeometry>
                </mxCell>
                <mxCell id="297" value="" style="endArrow=none;html=1;rounded=0;" edge="1" parent="1">
                    <mxGeometry width="50" height="50" relative="1" as="geometry">
                        <mxPoint x="40" y="480" as="sourcePoint"/>
                        <mxPoint x="760" y="480" as="targetPoint"/>
                    </mxGeometry>
                </mxCell>
                <mxCell id="298" value="" style="endArrow=none;html=1;rounded=0;" edge="1" parent="1">
                    <mxGeometry width="50" height="50" relative="1" as="geometry">
                        <mxPoint x="40" y="560" as="sourcePoint"/>
                        <mxPoint x="760" y="560" as="targetPoint"/>
                    </mxGeometry>
                </mxCell>
                <mxCell id="299" value="" style="endArrow=none;html=1;rounded=0;" edge="1" parent="1">
                    <mxGeometry width="50" height="50" relative="1" as="geometry">
                        <mxPoint x="40" y="640" as="sourcePoint"/>
                        <mxPoint x="760" y="640" as="targetPoint"/>
                    </mxGeometry>
                </mxCell>
                <mxCell id="302" value="" style="endArrow=none;html=1;rounded=0;" edge="1" parent="1">
                    <mxGeometry width="50" height="50" relative="1" as="geometry">
                        <mxPoint x="50" y="240" as="sourcePoint"/>
                        <mxPoint x="760" y="240" as="targetPoint"/>
                        <Array as="points">
                            <mxPoint x="80" y="220"/>
                            <mxPoint x="130" y="220"/>
                            <mxPoint x="220" y="190"/>
                            <mxPoint x="260" y="180"/>
                            <mxPoint x="410" y="220"/>
                            <mxPoint x="500" y="210"/>
                            <mxPoint x="550" y="220"/>
                        </Array>
                    </mxGeometry>
                </mxCell>
                <mxCell id="303" value="" style="endArrow=none;html=1;rounded=0;" edge="1" parent="1">
                    <mxGeometry width="50" height="50" relative="1" as="geometry">
                        <mxPoint x="50" y="320.0000000000002" as="sourcePoint"/>
                        <mxPoint x="760" y="320" as="targetPoint"/>
                        <Array as="points">
                            <mxPoint x="300" y="270"/>
                            <mxPoint x="350" y="270"/>
                        </Array>
                    </mxGeometry>
                </mxCell>
                <mxCell id="304" value="" style="endArrow=none;html=1;rounded=0;" edge="1" parent="1">
                    <mxGeometry width="50" height="50" relative="1" as="geometry">
                        <mxPoint x="60" y="400" as="sourcePoint"/>
                        <mxPoint x="760" y="400" as="targetPoint"/>
                        <Array as="points">
                            <mxPoint x="80" y="380"/>
                            <mxPoint x="130" y="390"/>
                            <mxPoint x="200" y="370"/>
                            <mxPoint x="250" y="390"/>
                            <mxPoint x="290" y="380"/>
                            <mxPoint x="330" y="360"/>
                            <mxPoint x="390" y="370"/>
                            <mxPoint x="450" y="350"/>
                            <mxPoint x="510" y="360"/>
                            <mxPoint x="550" y="380"/>
                            <mxPoint x="610" y="390"/>
                            <mxPoint x="680" y="380"/>
                        </Array>
                    </mxGeometry>
                </mxCell>
                <mxCell id="308" value="" style="endArrow=none;html=1;rounded=0;" edge="1" parent="1">
                    <mxGeometry width="50" height="50" relative="1" as="geometry">
                        <mxPoint x="50" y="480" as="sourcePoint"/>
                        <mxPoint x="760" y="480" as="targetPoint"/>
                        <Array as="points">
                            <mxPoint x="90" y="460"/>
                            <mxPoint x="150" y="470"/>
                            <mxPoint x="180" y="460"/>
                            <mxPoint x="240" y="460"/>
                            <mxPoint x="300" y="470"/>
                            <mxPoint x="500" y="430"/>
                            <mxPoint x="540" y="430"/>
                            <mxPoint x="580" y="440"/>
                            <mxPoint x="640" y="470"/>
                            <mxPoint x="700" y="460"/>
                        </Array>
                    </mxGeometry>
                </mxCell>
                <mxCell id="309" value="" style="endArrow=none;html=1;rounded=0;" edge="1" parent="1">
                    <mxGeometry width="50" height="50" relative="1" as="geometry">
                        <mxPoint x="50" y="560" as="sourcePoint"/>
                        <mxPoint x="760" y="560" as="targetPoint"/>
                        <Array as="points">
                            <mxPoint x="70" y="540"/>
                            <mxPoint x="90" y="540"/>
                            <mxPoint x="200" y="550"/>
                            <mxPoint x="280" y="540"/>
                            <mxPoint x="340" y="520"/>
                            <mxPoint x="370" y="530"/>
                            <mxPoint x="410" y="540"/>
                            <mxPoint x="540" y="520"/>
                            <mxPoint x="690" y="510"/>
                            <mxPoint x="740" y="530"/>
                        </Array>
                    </mxGeometry>
                </mxCell>
                <mxCell id="310" value="" style="endArrow=none;html=1;rounded=0;" edge="1" parent="1">
                    <mxGeometry width="50" height="50" relative="1" as="geometry">
                        <mxPoint x="50" y="640" as="sourcePoint"/>
                        <mxPoint x="760" y="640" as="targetPoint"/>
                        <Array as="points">
                            <mxPoint x="113" y="620"/>
                            <mxPoint x="163" y="630"/>
                            <mxPoint x="223" y="610"/>
                            <mxPoint x="273" y="630"/>
                            <mxPoint x="333" y="600"/>
                            <mxPoint x="363" y="600"/>
                            <mxPoint x="433" y="630"/>
                            <mxPoint x="503" y="600"/>
                            <mxPoint x="583" y="620"/>
                            <mxPoint x="613" y="620"/>
                            <mxPoint x="693" y="610"/>
                        </Array>
                    </mxGeometry>
                </mxCell>
            </root>
        </mxGraphModel>
    </diagram>
</mxfile>